<?xml version="1.0" encoding="utf-8"?>
<!-- Generator: Adobe Illustrator 14.0.0, SVG Export Plug-In . SVG Version: 6.00 Build 43363)  -->
<!DOCTYPE svg PUBLIC "-//W3C//DTD SVG 1.1//EN" "http://www.w3.org/Graphics/SVG/1.1/DTD/svg11.dtd">
<svg version="1.1" id="图层_1" xmlns="http://www.w3.org/2000/svg" xmlns:xlink="http://www.w3.org/1999/xlink" x="0px" y="0px"
	 width="24px" height="24px" viewBox="0 0 24 24" enable-background="new 0 0 24 24" xml:space="preserve">
<g>
	<g>
		<path fill-rule="evenodd" clip-rule="evenodd" fill="#B3B3B3" d="M22,0H2C0.896,0,0,0.896,0,2v20c0,1.104,0.896,2,2,2h20
			c1.104,0,2-0.896,2-2V2C24,0.896,23.104,0,22,0z M2,3c0-0.552,0.448-1,1-1h8v9H2V3z M3,22c-0.552,0-1-0.447-1-1v-8h9v9H3z M22,21
			c0,0.553-0.447,1-1,1h-8v-9h9V21z M22,11h-9V2h8c0.553,0,1,0.448,1,1V11z"/>
	</g>
</g>
</svg>
